<?xml version="1.0" standalone="no"?><!DOCTYPE svg PUBLIC "-//W3C//DTD SVG 1.1//EN" "http://www.w3.org/Graphics/SVG/1.1/DTD/svg11.dtd"><svg t="1644337859876" class="icon" viewBox="0 0 1025 1024" version="1.1" xmlns="http://www.w3.org/2000/svg" p-id="4145" xmlns:xlink="http://www.w3.org/1999/xlink" width="200.1953125" height="200"><defs><style type="text/css"></style></defs><path d="M241.705341 731.315655c27.085623 20.951009 57.637584 31.463484 91.774445 31.463484 27.279402 0 48.823219-6.658581 64.74874-20.039486s23.888281-31.333449 23.888281-53.788789c0-50.062381-35.834971-75.12608-107.566105-75.12608l-32.966541 0L281.58416 572.376616l31.398466 0c63.508303 0 95.300701-23.500724 95.300701-70.560815 0-43.468818-24.282212-65.141396-72.846635-65.141396-27.74345 0-53.91755 9.402074-78.458558 28.131007l0-47.25387c25.915304-15.015272 56.133252-22.519084 90.729062-22.519084 33.744204 0 60.834927 8.809266 81.267069 26.432896 20.428317 17.623631 30.676897 40.536645 30.676897 68.603909 0 51.760491-26.439271 85.115864-79.240045 99.930983l0 1.046658c28.58868 3.067307 51.2378 13.180752 67.816047 30.282966 16.578247 17.104764 24.933664 38.449704 24.933664 64.036094 0 35.636093-12.793195 64.291066-38.444604 86.092405-25.651409 21.802614-59.788269 32.703921-102.346838 32.703921-37.469338 0-67.752304-6.987494-90.729062-20.956108L241.705341 731.315655 241.705341 731.315655 241.705341 731.315655zM241.705341 731.315655M535.301209 607.359982c0-69.837971 11.552759-122.708863 34.72457-158.545109 23.171811-35.834971 56.720962-53.782415 100.718845-53.782415 83.806585 0 125.712427 67.622269 125.712427 202.930549 0 66.775763-11.811555 117.884802-35.377297 153.197081-23.629485 35.377297-56.720962 53.002202-99.279531 53.002202-40.207732 0-71.342303-16.7784-93.407537-50.327551C546.331276 720.285588 535.301209 671.462369 535.301209 607.359982L535.301209 607.359982 535.301209 607.359982zM586.408973 605.079262c0 105.086507 26.633049 157.699878 79.95779 157.699878 52.483335 0 78.722453-53.394858 78.722453-160.244494 0-110.573494-25.721526-165.860241-77.153104-165.860241C613.629731 436.674405 586.408973 492.807657 586.408973 605.079262L586.408973 605.079262 586.408973 605.079262zM586.408973 605.079262M838.169115 73.105431c-18.276358 0-33.161594-14.94388-33.161594-33.156495l0-6.792441c0-18.276358-14.94388-33.156495-33.156495-33.156495l-6.792441 0c-18.276358 0-33.156495 14.950254-33.156495 33.156495l0 6.792441c0 18.276358-14.94898 33.156495-33.15522 33.156495l-372.971048 0c-18.276358 0-33.156495-14.94388-33.156495-33.156495l0-6.792441c0-18.276358-14.94898-33.156495-33.16032-33.156495l-6.852359 0c-18.276358 0-33.161594 14.950254-33.161594 33.156495l0 6.792441c0 18.276358-14.945155 33.156495-33.156495 33.156495l-153.132064 0c-18.276358 0-33.156495 14.950254-33.156495 33.161594l0 884.57138c0 18.276358 14.950254 33.161594 33.156495 33.161594l957.746928 0c18.21134 0 33.16032-14.950254 33.16032-33.161594l0-884.57138c0-18.21134-14.94898-33.161594-33.16032-33.161594L838.169115 73.105431 838.169115 73.105431 838.169115 73.105431zM962.711224 917.734249c0 18.21134-3.168021 47.332911-44.848214 49.338262l-811.532242 0c-37.488461 0-46.274779-31.125647-46.274779-49.338262L60.055989 179.436199c0-26.293937 28.063439-43.026442 46.274779-43.026442l79.95779 0c18.276358 0 33.156495 24.815102 33.156495 43.026442l0 25.805666c0 18.276358 14.94898 33.156495 33.161594 33.156495l6.852359 0c18.275083 0 33.16032-14.945155 33.16032-33.156495l0-25.805666c0-18.276358 14.945155-41.751585 33.156495-41.751585l372.835913 0c18.276358 0 33.161594 23.540245 33.161594 41.751585l0 26.230194c0 18.276358 14.945155 33.156495 33.156495 33.156495l6.787342 0c18.276358 0 33.161594-14.945155 33.161594-33.156495l0-26.230194c0-18.276358 15.173354-40.476727 33.384694-40.476727L917.897431 138.959472c28.471394 0 45.044542 16.148621 44.620014 40.476727L962.711224 917.734249 962.711224 917.734249 962.711224 917.734249zM962.711224 917.734249" p-id="4146" fill="#707070"></path></svg>